<svg xmlns="http://www.w3.org/2000/svg" version="1.1" xmlns:xlink="http://www.w3.org/1999/xlink" xmlns:svgjs="http://svgjs.dev/svgjs" width="100%" height="100%" viewBox="0 0 1000 600"><rect width="1000" height="600" x="0" y="0" fill="transparent"/><g><circle r="166.66666666666666" cx="294.12551371256507" cy="316.3477534171504" fill="#341f00" transform="matrix(0.9807086593749339,0,0,0.980708659374934,0,-10.244981000822008)"/><path d="M231.44694970272204 391.3477647816311L216.2386168298267 391.3477647816311L216.2386168298267 241.3477693229373L229.3040926247407 241.3477693229373L297.8755191201436 358.3418133999463L291.0302812321477 358.3418133999463L358.94694584261185 241.3477693229373L372.01242163752585 241.3477693229373L372.01242163752585 391.3477647816311L356.8040887646305 391.3477647816311L356.8040887646305 265.127530507758L360.4350410356544 265.127530507758L297.8755191201436 372.270384406825L290.3755193472089 372.270384406825L227.36956887378534 265.127530507758L231.44694970272204 265.127530507758L231.44694970272204 391.3477647816311Z " fill="#817360" transform="matrix(0.9807086593749339,0,0,0.980708659374934,0,-10.244981000822008)"/><path d="M646.5228478793197 390.18672223008355L630.7520466256121 390.18672223008355L630.7520466256121 363.2570309277405L630.0425218248319 358.8386264865178L630.0425218248319 313.7838016369691Q630.0425218248319 298.238758274419 621.3347174516192 289.88571630159646Q612.6269130784065 281.50042320146565 595.4370622231384 281.50042320146565L595.4370622231384 281.50042320146565Q583.6008985010308 281.50042320146565 572.9257753620182 285.4673118603737Q562.2506522230055 289.4019493919735 554.8006418148125 295.91667710822895L554.8006418148125 295.91667710822895L547.3828825339276 283.59674647649837Q556.6712071986879 275.69522028599056 569.6684115038904 271.4058203540006Q582.6656158090932 267.1164204220106 597.0818697158563 267.1164204220106L597.0818697158563 267.1164204220106Q620.7541971600717 267.1164204220106 633.6546480833497 278.85583076219365Q646.5228478793197 290.56298997506855 646.5228478793197 314.4933264377494L646.5228478793197 314.4933264377494L646.5228478793197 390.18672223008355ZM588.6965766157257 391.3477628131785L588.6965766157257 391.3477628131785Q575.0220986370508 391.3477628131785 564.8952446622775 386.8326049900312Q554.8006418148125 382.2851960395757 549.4792058089602 374.2869164671432Q544.1255186757999 366.25638576740266 544.1255186757999 355.80702051954745L544.1255186757999 355.80702051954745Q544.1255186757999 346.2929379636298 548.6406764989472 338.52041628235474Q553.1880854494027 330.7478946010797 563.5084461880251 325.9747277594669Q573.8610580539558 321.23381204516215 591.2766668003812 321.23381204516215L591.2766668003812 321.23381204516215L633.2998856829596 321.23381204516215L633.2998856829596 333.52149154958454L591.728182582696 333.52149154958454Q574.0868159451131 333.52149154958454 567.2173258284677 339.81046137468263Q560.3800868391302 346.0671800724724 560.3800868391302 355.35550473723265L560.3800868391302 355.35550473723265Q560.3800868391302 365.804869985088 568.5073709207954 372.06158868287775Q576.6346550024606 378.35055850797585 591.2766668003812 378.35055850797585L591.2766668003812 378.35055850797585Q605.2091537975216 378.35055850797585 615.3037566449866 371.96483530095315Q625.3983594924518 365.5791120939306 630.0425218248319 353.4849393533574L630.0425218248319 353.4849393533574L633.7514014652743 364.8695872931503Q629.1072391328942 376.9637600337235 617.6258378111768 384.15576142345094Q606.112185362151 391.3477628131785 588.6965766157257 391.3477628131785ZM729.8920119710043 391.3477628131785L729.8920119710043 391.3477628131785Q712.7021611157362 391.3477628131785 703.413836450976 382.0594381484183Q694.1255117862157 372.77111348365804 694.1255117862157 355.80702051954745L694.1255117862157 355.80702051954745L694.1255117862157 241.34776970276266L710.6058378407035 241.34776970276266L710.6058378407035 354.90398895491796Q710.6058378407035 365.5791120939306 716.0885294830967 371.38431500940567Q721.5389699981816 377.1895179248809 731.7625773548796 377.1895179248809L731.7625773548796 377.1895179248809Q742.6634583850496 377.1895179248809 749.8554597747772 370.9005480997828L749.8554597747772 370.9005480997828L755.6606626902523 382.76896294919857Q750.7907424667147 387.1551162631131 743.9535034773775 389.25143953814586Q737.0840133607318 391.3477628131785 729.8920119710043 391.3477628131785ZM747.7591364997444 281.9841901110886L672.2914985985676 281.9841901110886L672.2914985985676 268.2774610051057L747.7591364997444 268.2774610051057L747.7591364997444 281.9841901110886ZM837.4172704165271 391.3477628131785L837.4172704165271 391.3477628131785Q818.3568541773838 391.3477628131785 803.9728513979287 383.34948324074605Q789.5565974911655 375.3189525410055 781.4293134095002 361.28971216194054Q773.302029327835 347.2282206555675 773.302029327835 329.1030871083618L773.302029327835 329.1030871083618Q773.302029327835 311.0102046884643 781.1068021364182 297.077717691324Q788.8793238176933 283.1452306941836 802.4570484144434 275.114699994443Q816.0347730111936 267.1164204220106 832.9988659753043 267.1164204220106L832.9988659753043 267.1164204220106Q850.1887168305724 267.1164204220106 863.5406835361653 274.8889421032857Q876.8926502417581 282.6614637845607 884.5361674138003 296.72295529093384Q892.2119357131509 310.78444679730694 892.2119357131509 329.1030871083618L892.2119357131509 329.1030871083618Q892.2119357131509 330.2641276914568 892.082931203918 331.55417278378457Q891.9861778219934 332.84421787611245 891.9861778219934 334.2310163503648L891.9861778219934 334.2310163503648L785.8477178507229 334.2310163503648L785.8477178507229 321.91108571863424L883.1493689395479 321.91108571863424L876.6346412232925 326.78100594217176Q876.6346412232925 313.5580437458117 870.9584428170501 303.2376830071892Q865.2822444108077 292.8850711412586 855.5101528364247 287.07986822578346Q845.7703123893497 281.2746653103083 832.9988659753043 281.2746653103083L832.9988659753043 281.2746653103083Q820.4531774524164 281.2746653103083 810.4553279868759 287.07986822578346Q800.4897296486437 292.8850711412586 794.9102846243258 303.3344363891138Q789.3308396000081 313.7838016369691 789.3308396000081 327.26477285179465L789.3308396000081 327.26477285179465L789.3308396000081 329.8126119091421Q789.3308396000081 343.74509890628235 795.4908049158734 354.3234686633705Q801.6507702317386 364.8695872931503 812.6806557711415 370.8037947178582Q823.7105413105442 376.7057510152579 837.8687861988418 376.7057510152579L837.8687861988418 376.7057510152579Q849.0276762474774 376.7057510152579 858.6385121853197 372.77111348365804Q868.2815992504699 368.8364759520583 875.24784274904 360.70919187039306L875.24784274904 360.70919187039306L884.5361674138003 371.38431500940567Q876.4088833321351 381.1241554564806 864.2179572096373 386.2520846984837Q852.0270310871396 391.3477628131785 837.4172704165271 391.3477628131785Z " fill="#341f00" transform="matrix(0.9807086593749339,0,0,0.980708659374934,0,-10.244981000822008)"/></g></svg>